<svg width="24" height="23" viewBox="0 0 24 23" fill="none" xmlns="http://www.w3.org/2000/svg">
<g clip-path="url(#clip0_331_304)" filter="url(#filter0_i_331_304)">
<path d="M22.5 1.43732C22.5 0.857823 22.1344 0.332237 21.5719 0.107628C21.0094 -0.116982 20.3672 0.00879961 19.9359 0.417589L17.8922 2.38067C15.6422 4.53692 12.5906 5.74981 9.40781 5.74981H9H7.5H3C1.34531 5.74981 0 7.03907 0 8.62481V12.9373C0 14.5231 1.34531 15.8123 3 15.8123V21.5623C3 22.3574 3.67031 22.9998 4.5 22.9998H7.5C8.32969 22.9998 9 22.3574 9 21.5623V15.8123H9.40781C12.5906 15.8123 15.6422 17.0252 17.8922 19.1815L19.9359 21.14C20.3672 21.5533 21.0094 21.6746 21.5719 21.45C22.1344 21.2254 22.5 20.7043 22.5 20.1203V13.4943C23.3719 13.099 24 12.0344 24 10.7811C24 9.52774 23.3719 8.4631 22.5 8.06778V1.43732ZM19.5 4.88282V10.7811V16.6793C16.7438 14.276 13.1484 12.9373 9.40781 12.9373H9V8.62481H9.40781C13.1484 8.62481 16.7438 7.28614 19.5 4.88282Z" fill="#00D8D8"/>
</g>
<defs>
<filter id="filter0_i_331_304" x="0" y="0" width="24" height="24" filterUnits="userSpaceOnUse" color-interpolation-filters="sRGB">
<feFlood flood-opacity="0" result="BackgroundImageFix"/>
<feBlend mode="normal" in="SourceGraphic" in2="BackgroundImageFix" result="shape"/>
<feColorMatrix in="SourceAlpha" type="matrix" values="0 0 0 0 0 0 0 0 0 0 0 0 0 0 0 0 0 0 127 0" result="hardAlpha"/>
<feOffset dy="1"/>
<feGaussianBlur stdDeviation="5"/>
<feComposite in2="hardAlpha" operator="arithmetic" k2="-1" k3="1"/>
<feColorMatrix type="matrix" values="0 0 0 0 0 0 0 0 0 0 0 0 0 0 0 0 0 0 0.85 0"/>
<feBlend mode="normal" in2="shape" result="effect1_innerShadow_331_304"/>
</filter>
<clipPath id="clip0_331_304">
<rect width="24" height="23" fill="white"/>
</clipPath>
</defs>
</svg>
