<svg width="30" height="24" viewBox="0 0 30 24" fill="none" xmlns="http://www.w3.org/2000/svg">
<g clip-path="url(#clip0_364_7)" filter="url(#filter0_i_364_7)">
<g filter="url(#filter1_d_364_7)">
<path d="M1.725 9H28.275C29.2266 9 30 8.22656 30 7.275C30 6.93281 29.8969 6.6 29.7094 6.31875L26.1656 1.00312C25.7484 0.375 25.05 0 24.2953 0H5.70469C4.95469 0 4.25156 0.375 3.83438 1.00312L0.290625 6.31406C0.103125 6.6 0 6.93281 0 7.27031C0 8.22656 0.773438 9 1.725 9ZM3 10.5V18V21.75C3 22.9922 4.00781 24 5.25 24H15.75C16.9922 24 18 22.9922 18 21.75V18V10.5H15V18H6V10.5H3ZM24 10.5V22.5C24 23.3297 24.6703 24 25.5 24C26.3297 24 27 23.3297 27 22.5V10.5H24Z" fill="#0072B3"/>
</g>
</g>
<defs>
<filter id="filter0_i_364_7" x="0" y="0" width="30" height="25" filterUnits="userSpaceOnUse" color-interpolation-filters="sRGB">
<feFlood flood-opacity="0" result="BackgroundImageFix"/>
<feBlend mode="normal" in="SourceGraphic" in2="BackgroundImageFix" result="shape"/>
<feColorMatrix in="SourceAlpha" type="matrix" values="0 0 0 0 0 0 0 0 0 0 0 0 0 0 0 0 0 0 127 0" result="hardAlpha"/>
<feOffset dy="1"/>
<feGaussianBlur stdDeviation="6.5"/>
<feComposite in2="hardAlpha" operator="arithmetic" k2="-1" k3="1"/>
<feColorMatrix type="matrix" values="0 0 0 0 0 0 0 0 0 0 0 0 0 0 0 0 0 0 0.85 0"/>
<feBlend mode="normal" in2="shape" result="effect1_innerShadow_364_7"/>
</filter>
<filter id="filter1_d_364_7" x="-4" y="0" width="38" height="32" filterUnits="userSpaceOnUse" color-interpolation-filters="sRGB">
<feFlood flood-opacity="0" result="BackgroundImageFix"/>
<feColorMatrix in="SourceAlpha" type="matrix" values="0 0 0 0 0 0 0 0 0 0 0 0 0 0 0 0 0 0 127 0" result="hardAlpha"/>
<feOffset dy="4"/>
<feGaussianBlur stdDeviation="2"/>
<feComposite in2="hardAlpha" operator="out"/>
<feColorMatrix type="matrix" values="0 0 0 0 0 0 0 0 0 0 0 0 0 0 0 0 0 0 0.25 0"/>
<feBlend mode="normal" in2="BackgroundImageFix" result="effect1_dropShadow_364_7"/>
<feBlend mode="normal" in="SourceGraphic" in2="effect1_dropShadow_364_7" result="shape"/>
</filter>
<clipPath id="clip0_364_7">
<rect width="30" height="24" fill="white"/>
</clipPath>
</defs>
</svg>
