<svg width="28" height="17" viewBox="0 0 28 17" fill="none" xmlns="http://www.w3.org/2000/svg">
<g filter="url(#filter0_i_364_12)">
<path d="M14.1487 0.938632L9.91375 4.4098C9.20938 4.98538 9.07375 6.02141 9.6075 6.76081C10.1719 7.5489 11.27 7.70387 12.0269 7.10615L16.3713 3.68812C16.6775 3.44903 17.115 3.50216 17.3556 3.81209C17.5963 4.12201 17.5394 4.56476 17.2331 4.80828L16.3187 5.52553L22.4 11.1927V2.83361H22.3694L22.1987 2.72292L19.0225 0.664126C18.3531 0.23023 17.57 0 16.7737 0C15.82 0 14.8925 0.332063 14.1487 0.938632ZM15.1463 6.44645L12.8844 8.22631C11.5062 9.31548 9.50687 9.03212 8.47437 7.59761C7.50312 6.24722 7.74812 4.3611 9.03 3.31178L12.67 0.332063C12.1625 0.115115 11.6156 0.00442744 11.06 0.00442744C10.2375 -6.76244e-08 9.43687 0.247941 8.75 0.708401L5.6 2.83361V12.7512H6.83375L10.8325 16.4438C11.69 17.2363 13.0156 17.1743 13.7987 16.3065C14.0394 16.0364 14.2012 15.7221 14.2844 15.3944L15.0281 16.0851C15.8812 16.8777 17.2112 16.8201 17.9944 15.9567C18.1912 15.7398 18.3356 15.4874 18.4275 15.2262C19.2763 15.8018 20.4312 15.6822 21.1444 14.8941C21.9275 14.0308 21.8706 12.6848 21.0175 11.8923L15.1463 6.44645ZM0.7 2.83361C0.315 2.83361 0 3.15239 0 3.54201V12.7512C0 13.5349 0.625625 14.168 1.4 14.168H2.8C3.57437 14.168 4.2 13.5349 4.2 12.7512V2.83361H0.7ZM2.1 11.3344C2.28565 11.3344 2.4637 11.4091 2.59497 11.5419C2.72625 11.6748 2.8 11.8549 2.8 12.0428C2.8 12.2307 2.72625 12.4109 2.59497 12.5437C2.4637 12.6766 2.28565 12.7512 2.1 12.7512C1.91435 12.7512 1.7363 12.6766 1.60503 12.5437C1.47375 12.4109 1.4 12.2307 1.4 12.0428C1.4 11.8549 1.47375 11.6748 1.60503 11.5419C1.7363 11.4091 1.91435 11.3344 2.1 11.3344ZM23.8 2.83361V12.7512C23.8 13.5349 24.4256 14.168 25.2 14.168H26.6C27.3744 14.168 28 13.5349 28 12.7512V3.54201C28 3.15239 27.685 2.83361 27.3 2.83361H23.8ZM25.2 12.0428C25.2 11.8549 25.2737 11.6748 25.405 11.5419C25.5363 11.4091 25.7143 11.3344 25.9 11.3344C26.0857 11.3344 26.2637 11.4091 26.395 11.5419C26.5263 11.6748 26.6 11.8549 26.6 12.0428C26.6 12.2307 26.5263 12.4109 26.395 12.5437C26.2637 12.6766 26.0857 12.7512 25.9 12.7512C25.7143 12.7512 25.5363 12.6766 25.405 12.5437C25.2737 12.4109 25.2 12.2307 25.2 12.0428Z" fill="#FFE600"/>
</g>
<defs>
<filter id="filter0_i_364_12" x="0" y="0" width="28" height="18" filterUnits="userSpaceOnUse" color-interpolation-filters="sRGB">
<feFlood flood-opacity="0" result="BackgroundImageFix"/>
<feBlend mode="normal" in="SourceGraphic" in2="BackgroundImageFix" result="shape"/>
<feColorMatrix in="SourceAlpha" type="matrix" values="0 0 0 0 0 0 0 0 0 0 0 0 0 0 0 0 0 0 127 0" result="hardAlpha"/>
<feOffset dy="1"/>
<feGaussianBlur stdDeviation="3"/>
<feComposite in2="hardAlpha" operator="arithmetic" k2="-1" k3="1"/>
<feColorMatrix type="matrix" values="0 0 0 0 0 0 0 0 0 0 0 0 0 0 0 0 0 0 1 0"/>
<feBlend mode="normal" in2="shape" result="effect1_innerShadow_364_12"/>
</filter>
</defs>
</svg>
