<svg width="30" height="28" viewBox="0 0 30 28" fill="none" xmlns="http://www.w3.org/2000/svg">
<path d="M25.8889 26.5064H4.11111C2.39289 26.5064 1 25.1136 1 23.3953V9.39529C1 7.67707 2.39289 6.28418 4.11111 6.28418H25.8889C27.6072 6.28418 29 7.67707 29 9.39529V23.3953C29 25.1136 27.6072 26.5064 25.8889 26.5064Z" stroke="white" stroke-width="2"/>
<path d="M22.0001 17.1737C21.5706 17.1737 21.2223 16.8254 21.2223 16.3959C21.2223 15.9665 21.5706 15.6182 22.0001 15.6182C22.4296 15.6182 22.7778 15.9665 22.7778 16.3959C22.7778 16.8254 22.4296 17.1737 22.0001 17.1737Z" stroke="white" stroke-width="2" stroke-linecap="round" stroke-linejoin="round"/>
<path d="M24.3333 6.28558V4.11281C24.3333 2.06872 22.3957 0.580063 20.4206 1.10674L3.30949 5.66972C1.9476 6.03289 1 7.26629 1 8.67578V9.39669" stroke="white" stroke-width="2"/>
</svg>
