<svg width="32" height="32" viewBox="0 0 32 32" fill="none" xmlns="http://www.w3.org/2000/svg">
<path d="M16 1C7.71572 1 1 7.71572 1 16C1 24.2842 7.71572 31 16 31C24.2842 31 31 24.2842 31 16C31 7.71572 24.2842 1 16 1Z" stroke="white" stroke-width="2" stroke-linecap="round" stroke-linejoin="round"/>
<path d="M4.40662 25.5176C4.40662 25.5176 7.75015 21.249 16.0001 21.249C24.2501 21.249 27.5938 25.5176 27.5938 25.5176" stroke="white" stroke-width="2" stroke-linecap="round" stroke-linejoin="round"/>
<path d="M16.0001 16.001C18.4855 16.001 20.5001 13.9863 20.5001 11.501C20.5001 9.0157 18.4855 7.00098 16.0001 7.00098C13.5148 7.00098 11.5001 9.0157 11.5001 11.501C11.5001 13.9863 13.5148 16.001 16.0001 16.001Z" stroke="white" stroke-width="2" stroke-linecap="round" stroke-linejoin="round"/>
</svg>
