<svg width="70" height="80" viewBox="0 0 70 80" fill="none" xmlns="http://www.w3.org/2000/svg">
<g clip-path="url(#clip0_534_164)" filter="url(#filter0_i_534_164)">
<path d="M35.0009 0C32.2353 0 30.0009 2.23437 30.0009 5V8C18.5947 10.3125 10.0009 20.4062 10.0009 32.5V35.4375C10.0009 42.7813 7.29779 49.875 2.42279 55.375L1.26654 56.6719C-0.0459596 58.1406 -0.35846 60.25 0.438415 62.0469C1.23529 63.8438 3.03217 65 5.00092 65H65.0009C66.9697 65 68.7509 63.8438 69.5634 62.0469C70.3759 60.25 70.0478 58.1406 68.7353 56.6719L67.579 55.375C62.704 49.875 60.0009 42.7969 60.0009 35.4375V32.5C60.0009 20.4062 51.4072 10.3125 40.0009 8V5C40.0009 2.23437 37.7665 0 35.0009 0ZM42.079 77.0781C43.954 75.2031 45.0009 72.6562 45.0009 70H35.0009H25.0009C25.0009 72.6562 26.0478 75.2031 27.9228 77.0781C29.7978 78.9531 32.3447 80 35.0009 80C37.6572 80 40.204 78.9531 42.079 77.0781Z" fill="#42007A"/>
</g>
<defs>
<filter id="filter0_i_534_164" x="0" y="0" width="70" height="80" filterUnits="userSpaceOnUse" color-interpolation-filters="sRGB">
<feFlood flood-opacity="0" result="BackgroundImageFix"/>
<feBlend mode="normal" in="SourceGraphic" in2="BackgroundImageFix" result="shape"/>
<feColorMatrix in="SourceAlpha" type="matrix" values="0 0 0 0 0 0 0 0 0 0 0 0 0 0 0 0 0 0 127 0" result="hardAlpha"/>
<feOffset/>
<feGaussianBlur stdDeviation="12.5"/>
<feComposite in2="hardAlpha" operator="arithmetic" k2="-1" k3="1"/>
<feColorMatrix type="matrix" values="0 0 0 0 0 0 0 0 0 0 0 0 0 0 0 0 0 0 0.8 0"/>
<feBlend mode="normal" in2="shape" result="effect1_innerShadow_534_164"/>
</filter>
<clipPath id="clip0_534_164">
<rect width="70" height="80" fill="white"/>
</clipPath>
</defs>
</svg>
