<svg width="133" height="152" viewBox="0 0 133 152" fill="none" xmlns="http://www.w3.org/2000/svg">
<g clip-path="url(#clip0_534_164)" filter="url(#filter0_i_534_164)">
<path d="M66.5016 0C61.247 0 57.0016 4.24531 57.0016 9.5V15.2C35.3298 19.5938 19.0016 38.7719 19.0016 61.75V67.3313C19.0016 81.2844 13.8657 94.7625 4.6032 105.212L2.40633 107.677C-0.0874209 110.467 -0.681171 114.475 0.832891 117.889C2.34695 121.303 5.76102 123.5 9.50164 123.5H123.502C127.242 123.5 130.627 121.303 132.17 117.889C133.714 114.475 133.091 110.467 130.597 107.677L128.4 105.212C119.138 94.7625 114.002 81.3141 114.002 67.3313V61.75C114.002 38.7719 97.6735 19.5938 76.0016 15.2V9.5C76.0016 4.24531 71.7563 0 66.5016 0ZM79.9501 146.448C83.5126 142.886 85.5016 138.047 85.5016 133H66.5016H47.5016C47.5016 138.047 49.4907 142.886 53.0532 146.448C56.6157 150.011 61.4548 152 66.5016 152C71.5485 152 76.3876 150.011 79.9501 146.448Z" fill="#42007A"/>
</g>
<defs>
<filter id="filter0_i_534_164" x="0" y="0" width="133" height="152" filterUnits="userSpaceOnUse" color-interpolation-filters="sRGB">
<feFlood flood-opacity="0" result="BackgroundImageFix"/>
<feBlend mode="normal" in="SourceGraphic" in2="BackgroundImageFix" result="shape"/>
<feColorMatrix in="SourceAlpha" type="matrix" values="0 0 0 0 0 0 0 0 0 0 0 0 0 0 0 0 0 0 127 0" result="hardAlpha"/>
<feOffset/>
<feGaussianBlur stdDeviation="12.5"/>
<feComposite in2="hardAlpha" operator="arithmetic" k2="-1" k3="1"/>
<feColorMatrix type="matrix" values="0 0 0 0 0 0 0 0 0 0 0 0 0 0 0 0 0 0 0.9 0"/>
<feBlend mode="normal" in2="shape" result="effect1_innerShadow_534_164"/>
</filter>
<clipPath id="clip0_534_164">
<rect width="133" height="152" fill="white"/>
</clipPath>
</defs>
</svg>
