<svg width="468" height="468" viewBox="0 0 468 468" fill="none" xmlns="http://www.w3.org/2000/svg">
<g filter="url(#filter0_i_534_163)">
<path d="M321.75 234C321.75 254.292 320.653 273.853 318.734 292.5H149.266C147.255 273.853 146.25 254.292 146.25 234C146.25 213.708 147.347 194.147 149.266 175.5H318.734C320.745 194.147 321.75 213.708 321.75 234ZM348.075 175.5H460.596C465.441 194.238 468 213.799 468 234C468 254.201 465.441 273.762 460.596 292.5H348.075C349.995 273.67 351 254.109 351 234C351 213.891 349.995 194.33 348.075 175.5ZM450.998 146.25H344.327C335.187 87.8414 317.088 38.9391 293.78 7.67812C365.351 26.5992 423.577 78.518 450.907 146.25H450.998ZM314.712 146.25H153.288C158.864 112.978 167.456 83.5453 177.968 59.6883C187.566 38.1164 198.26 22.4859 208.589 12.6141C218.827 2.925 227.327 0 234 0C240.673 0 249.173 2.925 259.411 12.6141C269.74 22.4859 280.434 38.1164 290.032 59.6883C300.635 83.4539 309.136 112.887 314.712 146.25ZM123.673 146.25H17.0016C44.4234 78.518 102.558 26.5992 174.22 7.67812C150.912 38.9391 132.813 87.8414 123.673 146.25ZM7.40391 175.5H119.925C118.005 194.33 117 213.891 117 234C117 254.109 118.005 273.67 119.925 292.5H7.40391C2.55938 273.762 0 254.201 0 234C0 213.799 2.55938 194.238 7.40391 175.5ZM177.968 408.22C167.365 384.455 158.864 355.022 153.288 321.75H314.712C309.136 355.022 300.544 384.455 290.032 408.22C280.434 429.792 269.74 445.423 259.411 455.295C249.173 465.075 240.673 468 234 468C227.327 468 218.827 465.075 208.589 455.386C198.26 445.514 187.566 429.884 177.968 408.312V408.22ZM123.673 321.75C132.813 380.159 150.912 429.061 174.22 460.322C102.558 441.401 44.4234 389.482 17.0016 321.75H123.673ZM450.998 321.75C423.577 389.482 365.442 441.401 293.871 460.322C317.18 429.061 335.187 380.159 344.419 321.75H450.998Z" fill="#42007A"/>
</g>
<defs>
<filter id="filter0_i_534_163" x="0" y="0" width="468" height="468" filterUnits="userSpaceOnUse" color-interpolation-filters="sRGB">
<feFlood flood-opacity="0" result="BackgroundImageFix"/>
<feBlend mode="normal" in="SourceGraphic" in2="BackgroundImageFix" result="shape"/>
<feColorMatrix in="SourceAlpha" type="matrix" values="0 0 0 0 0 0 0 0 0 0 0 0 0 0 0 0 0 0 127 0" result="hardAlpha"/>
<feOffset/>
<feGaussianBlur stdDeviation="5"/>
<feComposite in2="hardAlpha" operator="arithmetic" k2="-1" k3="1"/>
<feColorMatrix type="matrix" values="0 0 0 0 0 0 0 0 0 0 0 0 0 0 0 0 0 0 1 0"/>
<feBlend mode="normal" in2="shape" result="effect1_innerShadow_534_163"/>
</filter>
</defs>
</svg>
