<svg width="342" height="342" viewBox="0 0 342 342" fill="none" xmlns="http://www.w3.org/2000/svg">
<g filter="url(#filter0_ii_534_163)">
<path d="M235.125 171C235.125 185.829 234.323 200.123 232.921 213.75H109.079C107.61 200.123 106.875 185.829 106.875 171C106.875 156.171 107.677 141.877 109.079 128.25H232.921C234.39 141.877 235.125 156.171 235.125 171ZM254.362 128.25H336.589C340.13 141.943 342 156.238 342 171C342 185.762 340.13 200.057 336.589 213.75H254.362C255.765 199.99 256.5 185.695 256.5 171C256.5 156.305 255.765 142.01 254.362 128.25ZM329.576 106.875H251.624C244.944 64.1918 231.718 28.4555 214.685 5.61094C266.987 19.4379 309.537 57.3785 329.509 106.875H329.576ZM229.982 106.875H112.018C116.093 82.5609 122.372 61.0523 130.054 43.6184C137.067 27.8543 144.882 16.432 152.43 9.21797C159.912 2.1375 166.124 0 171 0C175.876 0 182.088 2.1375 189.57 9.21797C197.118 16.432 204.933 27.8543 211.946 43.6184C219.695 60.9855 225.907 82.4941 229.982 106.875ZM90.3762 106.875H12.4242C32.4633 57.3785 74.9461 19.4379 127.315 5.61094C110.282 28.4555 97.0559 64.1918 90.3762 106.875ZM5.41055 128.25H87.6375C86.2348 142.01 85.5 156.305 85.5 171C85.5 185.695 86.2348 199.99 87.6375 213.75H5.41055C1.87031 200.057 0 185.762 0 171C0 156.238 1.87031 141.943 5.41055 128.25ZM130.054 298.315C122.305 280.948 116.093 259.439 112.018 235.125H229.982C225.907 259.439 219.628 280.948 211.946 298.315C204.933 314.079 197.118 325.501 189.57 332.715C182.088 339.863 175.876 342 171 342C166.124 342 159.912 339.863 152.43 332.782C144.882 325.568 137.067 314.146 130.054 298.382V298.315ZM90.3762 235.125C97.0559 277.808 110.282 313.545 127.315 336.389C74.9461 322.562 32.4633 284.621 12.4242 235.125H90.3762ZM329.576 235.125C309.537 284.621 267.054 322.562 214.752 336.389C231.785 313.545 244.944 277.808 251.691 235.125H329.576Z" fill="#42007A"/>
</g>
<path d="M251.838 106.625C245.2 64.3682 232.144 28.9093 215.312 6.03671C267.1 19.9612 309.226 57.5869 329.138 106.625H251.838ZM211.718 43.72L211.718 43.7202C219.425 60.9949 225.614 82.3801 229.686 106.625H112.314C116.387 82.4471 122.641 61.0612 130.282 43.7192C137.287 27.9754 145.085 16.5841 152.603 9.39927C160.051 2.34969 166.205 0.25 171 0.25C175.795 0.25 181.949 2.34965 189.397 9.39926C196.915 16.5842 204.713 27.9758 211.718 43.72ZM130.304 298.315V298.262L130.282 298.213C122.575 280.939 116.387 259.554 112.314 235.375H229.686C225.613 259.553 219.359 280.938 211.718 298.213C204.713 313.958 196.914 325.35 189.397 332.535C181.948 339.651 175.795 341.75 171 341.75C166.205 341.75 160.051 339.65 152.602 332.6C145.093 325.423 137.303 314.047 130.304 298.329V298.315ZM234.875 171C234.875 185.739 234.083 199.949 232.695 213.5H109.304C107.851 199.95 107.125 185.74 107.125 171C107.125 156.261 107.917 142.051 109.305 128.5H232.696C234.149 142.05 234.875 156.26 234.875 171ZM336.396 213.5H254.639C256.025 199.816 256.75 185.606 256.75 171C256.75 156.394 256.025 142.184 254.639 128.5H336.396C339.899 142.116 341.75 156.326 341.75 171C341.75 185.674 339.899 199.884 336.396 213.5ZM126.689 6.03641C109.856 28.909 96.8002 64.3681 90.1623 106.625H12.7956C32.7741 57.5863 74.8348 19.9606 126.689 6.03641ZM0.25 171C0.25 156.326 2.10058 142.116 5.60425 128.5H87.3608C85.9754 142.184 85.25 156.394 85.25 171C85.25 185.606 85.9754 199.816 87.3608 213.5H5.60425C2.10058 199.884 0.25 185.674 0.25 171ZM90.1623 235.375C96.8002 277.632 109.856 313.091 126.689 335.964C74.8348 322.039 32.7741 284.414 12.7956 235.375H90.1623ZM251.904 235.375H329.204C309.226 284.413 267.166 322.039 215.378 335.963C232.21 313.09 245.201 277.631 251.904 235.375Z" stroke="black" stroke-width="0.5"/>
<defs>
<filter id="filter0_ii_534_163" x="0" y="0" width="342" height="343" filterUnits="userSpaceOnUse" color-interpolation-filters="sRGB">
<feFlood flood-opacity="0" result="BackgroundImageFix"/>
<feBlend mode="normal" in="SourceGraphic" in2="BackgroundImageFix" result="shape"/>
<feColorMatrix in="SourceAlpha" type="matrix" values="0 0 0 0 0 0 0 0 0 0 0 0 0 0 0 0 0 0 127 0" result="hardAlpha"/>
<feOffset dy="1"/>
<feGaussianBlur stdDeviation="3"/>
<feComposite in2="hardAlpha" operator="arithmetic" k2="-1" k3="1"/>
<feColorMatrix type="matrix" values="0 0 0 0 0 0 0 0 0 0 0 0 0 0 0 0 0 0 1 0"/>
<feBlend mode="normal" in2="shape" result="effect1_innerShadow_534_163"/>
<feColorMatrix in="SourceAlpha" type="matrix" values="0 0 0 0 0 0 0 0 0 0 0 0 0 0 0 0 0 0 127 0" result="hardAlpha"/>
<feOffset dy="1"/>
<feGaussianBlur stdDeviation="3"/>
<feComposite in2="hardAlpha" operator="arithmetic" k2="-1" k3="1"/>
<feColorMatrix type="matrix" values="0 0 0 0 0 0 0 0 0 0 0 0 0 0 0 0 0 0 1 0"/>
<feBlend mode="normal" in2="effect1_innerShadow_534_163" result="effect2_innerShadow_534_163"/>
</filter>
</defs>
</svg>
