<svg width="139" height="139" viewBox="0 0 139 139" fill="none" xmlns="http://www.w3.org/2000/svg">
<g filter="url(#filter0_i_534_163)">
<path d="M95.5625 69.5C95.5625 75.527 95.2367 81.3367 94.6666 86.875H44.3334C43.7361 81.3367 43.4375 75.527 43.4375 69.5C43.4375 63.473 43.7633 57.6633 44.3334 52.125H94.6666C95.2639 57.6633 95.5625 63.473 95.5625 69.5ZM103.381 52.125H136.801C138.24 57.6904 139 63.5002 139 69.5C139 75.4998 138.24 81.3096 136.801 86.875H103.381C103.951 81.2824 104.25 75.4727 104.25 69.5C104.25 63.5273 103.951 57.7176 103.381 52.125ZM133.95 43.4375H102.268C99.5533 26.0896 94.1779 11.5652 87.2551 2.28047C108.512 7.9002 125.806 23.3205 133.923 43.4375H133.95ZM93.4721 43.4375H45.5279C47.184 33.5555 49.7359 24.8137 52.858 17.7279C55.7086 11.3209 58.885 6.67852 61.9527 3.74648C64.9934 0.86875 67.5182 0 69.5 0C71.4818 0 74.0066 0.86875 77.0473 3.74648C80.115 6.67852 83.2914 11.3209 86.142 17.7279C89.2912 24.7865 91.816 33.5283 93.4721 43.4375ZM36.7318 43.4375H5.04961C13.1941 23.3205 30.4605 7.9002 51.7449 2.28047C44.8221 11.5652 39.4467 26.0896 36.7318 43.4375ZM2.19902 52.125H35.6187C35.0486 57.7176 34.75 63.5273 34.75 69.5C34.75 75.4727 35.0486 81.2824 35.6187 86.875H2.19902C0.760156 81.3096 0 75.4998 0 69.5C0 63.5002 0.760156 57.6904 2.19902 52.125ZM52.858 121.245C49.7088 114.186 47.184 105.445 45.5279 95.5625H93.4721C91.816 105.445 89.2641 114.186 86.142 121.245C83.2914 127.652 80.115 132.294 77.0473 135.226C74.0066 138.131 71.4818 139 69.5 139C67.5182 139 64.9934 138.131 61.9527 135.254C58.885 132.321 55.7086 127.679 52.858 121.272V121.245ZM36.7318 95.5625C39.4467 112.91 44.8221 127.435 51.7449 136.72C30.4605 131.1 13.1941 115.679 5.04961 95.5625H36.7318ZM133.95 95.5625C125.806 115.679 108.539 131.1 87.2822 136.72C94.2051 127.435 99.5533 112.91 102.295 95.5625H133.95Z" fill="#42007A"/>
</g>
<defs>
<filter id="filter0_i_534_163" x="0" y="0" width="139" height="140" filterUnits="userSpaceOnUse" color-interpolation-filters="sRGB">
<feFlood flood-opacity="0" result="BackgroundImageFix"/>
<feBlend mode="normal" in="SourceGraphic" in2="BackgroundImageFix" result="shape"/>
<feColorMatrix in="SourceAlpha" type="matrix" values="0 0 0 0 0 0 0 0 0 0 0 0 0 0 0 0 0 0 127 0" result="hardAlpha"/>
<feOffset dy="1"/>
<feGaussianBlur stdDeviation="1.5"/>
<feComposite in2="hardAlpha" operator="arithmetic" k2="-1" k3="1"/>
<feColorMatrix type="matrix" values="0 0 0 0 0 0 0 0 0 0 0 0 0 0 0 0 0 0 1 0"/>
<feBlend mode="normal" in2="shape" result="effect1_innerShadow_534_163"/>
</filter>
</defs>
</svg>
