<svg width="139" height="139" viewBox="0 0 139 139" fill="none" xmlns="http://www.w3.org/2000/svg">
<g filter="url(#filter0_i_534_163)">
<path d="M95.5625 69.5C95.5625 75.527 95.2367 81.3367 94.6666 86.875H44.3334C43.7361 81.3367 43.4375 75.527 43.4375 69.5C43.4375 63.473 43.7633 57.6633 44.3334 52.125H94.6666C95.2639 57.6633 95.5625 63.473 95.5625 69.5ZM103.381 52.125H136.801C138.24 57.6904 139 63.5002 139 69.5C139 75.4998 138.24 81.3096 136.801 86.875H103.381C103.951 81.2824 104.25 75.4727 104.25 69.5C104.25 63.5273 103.951 57.7176 103.381 52.125ZM133.95 43.4375H102.268C99.5533 26.0896 94.1779 11.5652 87.2551 2.28047C108.512 7.9002 125.806 23.3205 133.923 43.4375H133.95ZM93.4721 43.4375H45.5279C47.184 33.5555 49.7359 24.8137 52.858 17.7279C55.7086 11.3209 58.885 6.67852 61.9527 3.74648C64.9934 0.86875 67.5182 0 69.5 0C71.4818 0 74.0066 0.86875 77.0473 3.74648C80.115 6.67852 83.2914 11.3209 86.142 17.7279C89.2912 24.7865 91.816 33.5283 93.4721 43.4375ZM36.7318 43.4375H5.04961C13.1941 23.3205 30.4605 7.9002 51.7449 2.28047C44.8221 11.5652 39.4467 26.0896 36.7318 43.4375ZM2.19902 52.125H35.6187C35.0486 57.7176 34.75 63.5273 34.75 69.5C34.75 75.4727 35.0486 81.2824 35.6187 86.875H2.19902C0.760156 81.3096 0 75.4998 0 69.5C0 63.5002 0.760156 57.6904 2.19902 52.125ZM52.858 121.245C49.7088 114.186 47.184 105.445 45.5279 95.5625H93.4721C91.816 105.445 89.2641 114.186 86.142 121.245C83.2914 127.652 80.115 132.294 77.0473 135.226C74.0066 138.131 71.4818 139 69.5 139C67.5182 139 64.9934 138.131 61.9527 135.254C58.885 132.321 55.7086 127.679 52.858 121.272V121.245ZM36.7318 95.5625C39.4467 112.91 44.8221 127.435 51.7449 136.72C30.4605 131.1 13.1941 115.679 5.04961 95.5625H36.7318ZM133.95 95.5625C125.806 115.679 108.539 131.1 87.2822 136.72C94.2051 127.435 99.5533 112.91 102.295 95.5625H133.95Z" fill="#42007A"/>
</g>
<path d="M102.354 43.3375C99.6556 26.1602 94.3482 11.7468 87.5057 2.45077C108.557 8.10953 125.681 23.4039 133.775 43.3375H102.354ZM86.0506 17.7686L86.0507 17.7687C89.1834 24.7902 91.6987 33.4827 93.3539 43.3375H45.6461C47.3016 33.51 49.8436 24.8174 52.9494 17.7685C55.7965 11.3694 58.9661 6.73931 62.0217 3.81894C65.0492 0.9536 67.5506 0.1 69.5 0.1C71.4495 0.1 73.9509 0.953634 76.9785 3.81911C80.034 6.73951 83.2036 11.3696 86.0506 17.7686ZM52.958 121.245V121.224L52.9493 121.204C49.8167 114.183 47.3014 105.49 45.6461 95.6625H93.3539C91.6984 105.49 89.1564 114.182 86.0506 121.204C83.2035 127.604 80.0337 132.234 76.9782 135.154C73.9506 138.047 71.4493 138.9 69.5 138.9C67.5506 138.9 65.0493 138.046 62.0218 135.181C58.9693 132.264 55.8029 127.64 52.958 121.251V121.245ZM95.4625 69.5C95.4625 75.4908 95.1404 81.2669 94.5763 86.775H44.4232C43.8328 81.2674 43.5375 75.4913 43.5375 69.5C43.5375 63.5092 43.8596 57.7331 44.4237 52.225H94.5768C95.1672 57.7326 95.4625 63.5087 95.4625 69.5ZM136.723 86.775H103.492C104.055 81.2129 104.35 75.4368 104.35 69.5C104.35 63.5632 104.055 57.7871 103.492 52.225H136.723C138.148 57.7595 138.9 63.5356 138.9 69.5C138.9 75.4644 138.148 81.2405 136.723 86.775ZM51.4944 2.45065C44.6519 11.7467 39.3444 26.1602 36.6463 43.3375H5.19815C13.3185 23.4036 30.416 8.10929 51.4944 2.45065ZM0.1 69.5C0.1 63.5356 0.852262 57.7595 2.2765 52.225H35.5081C34.9449 57.7871 34.65 63.5632 34.65 69.5C34.65 75.4368 34.9449 81.2129 35.5081 86.775H2.2765C0.852262 81.2405 0.1 75.4644 0.1 69.5ZM36.6463 95.6625C39.3444 112.84 44.6518 127.253 51.4944 136.549C30.416 130.891 13.3185 115.596 5.19815 95.6625H36.6463ZM102.381 95.6625H133.802C125.682 115.596 108.584 130.891 87.5328 136.549C94.375 127.253 99.6559 112.84 102.381 95.6625Z" stroke="black" stroke-width="0.2"/>
<defs>
<filter id="filter0_i_534_163" x="0" y="0" width="139" height="140" filterUnits="userSpaceOnUse" color-interpolation-filters="sRGB">
<feFlood flood-opacity="0" result="BackgroundImageFix"/>
<feBlend mode="normal" in="SourceGraphic" in2="BackgroundImageFix" result="shape"/>
<feColorMatrix in="SourceAlpha" type="matrix" values="0 0 0 0 0 0 0 0 0 0 0 0 0 0 0 0 0 0 127 0" result="hardAlpha"/>
<feOffset dy="1"/>
<feGaussianBlur stdDeviation="3.5"/>
<feComposite in2="hardAlpha" operator="arithmetic" k2="-1" k3="1"/>
<feColorMatrix type="matrix" values="0 0 0 0 0 0 0 0 0 0 0 0 0 0 0 0 0 0 1 0"/>
<feBlend mode="normal" in2="shape" result="effect1_innerShadow_534_163"/>
</filter>
</defs>
</svg>
