<svg width="127" height="127" viewBox="0 0 127 127" fill="none" xmlns="http://www.w3.org/2000/svg">
<path d="M127 63.5C127 98.5701 98.5701 127 63.5 127C28.4299 127 0 98.5701 0 63.5C0 28.4299 28.4299 0 63.5 0C98.5701 0 127 28.4299 127 63.5Z" fill="#2F0025"/>
<path d="M118.385 95.4354C112.791 105.05 104.769 113.027 95.122 118.566C85.4754 124.106 74.5429 127.014 63.4189 127C52.295 126.986 41.3699 124.05 31.7375 118.485C22.1051 112.921 14.1034 104.924 8.53351 95.2952C2.9636 85.6661 0.02093 74.7428 0.000111207 63.6188C-0.0207075 52.4949 2.88105 41.5606 8.41488 31.9108C13.9487 22.2609 21.9204 14.2341 31.5319 8.63388C41.1434 3.03368 52.0574 0.0566383 63.1813 0.0008L63.5 63.5L118.385 95.4354Z" fill="#490187"/>
<path d="M24.4688 78.123C24.0234 78.123 23.6621 78.0527 23.3848 77.9121C23.1074 77.7715 22.8926 77.5684 22.7402 77.3027C22.5918 77.0332 22.4902 76.707 22.4355 76.3242C22.3809 75.9414 22.3535 75.5078 22.3535 75.0234V70.7285C22.3535 69.9707 22.418 69.3613 22.5469 68.9004C22.6797 68.4355 22.8984 68.0977 23.2031 67.8867C23.5117 67.6758 23.9258 67.5703 24.4453 67.5703C24.8867 67.5703 25.2422 67.6562 25.5117 67.8281C25.7812 67.9961 25.9785 68.2715 26.1035 68.6543C26.2324 69.0371 26.2969 69.5508 26.2969 70.1953V70.6992H25.0605V70.4355C25.0605 69.9629 25.043 69.6055 25.0078 69.3633C24.9766 69.1172 24.9102 68.9512 24.8086 68.8652C24.7109 68.7793 24.5605 68.7363 24.3574 68.7363C24.1426 68.7363 23.9883 68.8008 23.8945 68.9297C23.8008 69.0586 23.7402 69.2617 23.7129 69.5391C23.6895 69.8164 23.6777 70.1816 23.6777 70.6348V71.9473C23.7871 71.834 23.9336 71.7422 24.1172 71.6719C24.3047 71.5977 24.5078 71.5605 24.7266 71.5605C25.1992 71.5566 25.5605 71.6699 25.8105 71.9004C26.0645 72.1309 26.2383 72.4766 26.332 72.9375C26.4297 73.3984 26.4785 73.9707 26.4785 74.6543V75.0879C26.4785 75.7129 26.4297 76.2539 26.332 76.7109C26.2344 77.1641 26.041 77.5137 25.752 77.7598C25.4668 78.002 25.0391 78.123 24.4688 78.123ZM24.4512 76.9453C24.6621 76.9453 24.8203 76.8965 24.9258 76.7988C25.0352 76.7012 25.1074 76.5391 25.1426 76.3125C25.1816 76.0859 25.2012 75.7812 25.2012 75.3984V74.543C25.2012 74.0898 25.1836 73.7285 25.1484 73.459C25.1172 73.1855 25.0488 72.9883 24.9434 72.8672C24.8379 72.7461 24.6836 72.6855 24.4805 72.6855C24.3398 72.6855 24.209 72.7109 24.0879 72.7617C23.9668 72.8086 23.8691 72.8633 23.7949 72.9258C23.7246 72.9883 23.6855 73.0391 23.6777 73.0781V75.3047C23.6777 75.6875 23.6992 76 23.7422 76.2422C23.7891 76.4844 23.8672 76.6621 23.9766 76.7754C24.0898 76.8887 24.248 76.9453 24.4512 76.9453ZM29.707 78.123C29.2617 78.123 28.9004 78.0527 28.623 77.9121C28.3457 77.7715 28.1309 77.5684 27.9785 77.3027C27.8301 77.0332 27.7285 76.707 27.6738 76.3242C27.6191 75.9414 27.5918 75.5078 27.5918 75.0234V70.7285C27.5918 69.9707 27.6562 69.3613 27.7852 68.9004C27.918 68.4355 28.1367 68.0977 28.4414 67.8867C28.75 67.6758 29.1641 67.5703 29.6836 67.5703C30.125 67.5703 30.4805 67.6562 30.75 67.8281C31.0195 67.9961 31.2168 68.2715 31.3418 68.6543C31.4707 69.0371 31.5352 69.5508 31.5352 70.1953V70.6992H30.2988V70.4355C30.2988 69.9629 30.2812 69.6055 30.2461 69.3633C30.2148 69.1172 30.1484 68.9512 30.0469 68.8652C29.9492 68.7793 29.7988 68.7363 29.5957 68.7363C29.3809 68.7363 29.2266 68.8008 29.1328 68.9297C29.0391 69.0586 28.9785 69.2617 28.9512 69.5391C28.9277 69.8164 28.916 70.1816 28.916 70.6348V71.9473C29.0254 71.834 29.1719 71.7422 29.3555 71.6719C29.543 71.5977 29.7461 71.5605 29.9648 71.5605C30.4375 71.5566 30.7988 71.6699 31.0488 71.9004C31.3027 72.1309 31.4766 72.4766 31.5703 72.9375C31.668 73.3984 31.7168 73.9707 31.7168 74.6543V75.0879C31.7168 75.7129 31.668 76.2539 31.5703 76.7109C31.4727 77.1641 31.2793 77.5137 30.9902 77.7598C30.7051 78.002 30.2773 78.123 29.707 78.123ZM29.6895 76.9453C29.9004 76.9453 30.0586 76.8965 30.1641 76.7988C30.2734 76.7012 30.3457 76.5391 30.3809 76.3125C30.4199 76.0859 30.4395 75.7812 30.4395 75.3984V74.543C30.4395 74.0898 30.4219 73.7285 30.3867 73.459C30.3555 73.1855 30.2871 72.9883 30.1816 72.8672C30.0762 72.7461 29.9219 72.6855 29.7188 72.6855C29.5781 72.6855 29.4473 72.7109 29.3262 72.7617C29.2051 72.8086 29.1074 72.8633 29.0332 72.9258C28.9629 72.9883 28.9238 73.0391 28.916 73.0781V75.3047C28.916 75.6875 28.9375 76 28.9805 76.2422C29.0273 76.4844 29.1055 76.6621 29.2148 76.7754C29.3281 76.8887 29.4863 76.9453 29.6895 76.9453ZM36 78L40.0957 67.6875H41.1738L37.1309 78H36ZM34.9277 74.5957C34.4707 74.5957 34.1035 74.5137 33.8262 74.3496C33.5527 74.1816 33.3535 73.9141 33.2285 73.5469C33.1035 73.1797 33.041 72.6973 33.041 72.0996V70.0078C33.041 69.4141 33.1016 68.9375 33.2227 68.5781C33.3438 68.2188 33.541 67.959 33.8145 67.7988C34.0918 67.6387 34.4629 67.5586 34.9277 67.5586C35.3926 67.5586 35.7617 67.6387 36.0352 67.7988C36.3125 67.959 36.5117 68.2188 36.6328 68.5781C36.7539 68.9375 36.8145 69.4141 36.8145 70.0078V72.0996C36.8145 72.6973 36.752 73.1797 36.627 73.5469C36.502 73.9141 36.3008 74.1816 36.0234 74.3496C35.75 74.5137 35.3848 74.5957 34.9277 74.5957ZM34.9277 73.5879C35.1973 73.5879 35.3809 73.5059 35.4785 73.3418C35.5762 73.1738 35.625 72.8945 35.625 72.5039V69.6094C35.625 69.2227 35.5781 68.9531 35.4844 68.8008C35.3906 68.6445 35.2051 68.5664 34.9277 68.5664C34.6504 68.5664 34.4629 68.6445 34.3652 68.8008C34.2715 68.957 34.2246 69.2266 34.2246 69.6094V72.5039C34.2246 72.8945 34.2734 73.1738 34.3711 73.3418C34.4688 73.5059 34.6543 73.5879 34.9277 73.5879ZM42.1816 78.1172C41.7285 78.1172 41.3633 78.0352 41.0859 77.8711C40.8086 77.7031 40.6074 77.4355 40.4824 77.0684C40.3574 76.7012 40.2949 76.2188 40.2949 75.6211V73.5293C40.2949 72.9355 40.3555 72.459 40.4766 72.0996C40.5977 71.7402 40.7949 71.4805 41.0684 71.3203C41.3457 71.1602 41.7168 71.0801 42.1816 71.0801C42.6504 71.0801 43.0215 71.1602 43.2949 71.3203C43.5723 71.4805 43.7695 71.7402 43.8867 72.0996C44.0078 72.459 44.0684 72.9355 44.0684 73.5293V75.6211C44.0684 76.2188 44.0059 76.7012 43.8809 77.0684C43.7598 77.4355 43.5605 77.7031 43.2832 77.8711C43.0059 78.0352 42.6387 78.1172 42.1816 78.1172ZM42.1816 77.1094C42.4512 77.1094 42.6348 77.0273 42.7324 76.8633C42.834 76.6953 42.8848 76.416 42.8848 76.0254V73.1309C42.8848 72.7441 42.8379 72.4746 42.7441 72.3223C42.6504 72.166 42.4629 72.0879 42.1816 72.0879C41.9082 72.0879 41.7227 72.166 41.625 72.3223C41.5312 72.4785 41.4844 72.748 41.4844 73.1309V76.0254C41.4844 76.416 41.5332 76.6953 41.6309 76.8633C41.7285 77.0273 41.9121 77.1094 42.1816 77.1094Z" fill="white"/>
<path d="M92.2461 48.1172C91.5 48.1172 90.9824 47.8848 90.6934 47.4199C90.4043 46.9512 90.2598 46.2305 90.2598 45.2578V44.6777H91.5371V45.252C91.5371 45.666 91.5527 45.998 91.584 46.248C91.6191 46.498 91.6895 46.6797 91.7949 46.793C91.9043 46.9023 92.0664 46.957 92.2812 46.957C92.5 46.957 92.6621 46.8926 92.7676 46.7637C92.877 46.6348 92.9492 46.4336 92.9844 46.1602C93.0234 45.8867 93.043 45.5352 93.043 45.1055C93.043 44.6133 93.0156 44.2207 92.9609 43.9277C92.9062 43.6348 92.8066 43.4238 92.6621 43.2949C92.5215 43.166 92.3184 43.1016 92.0527 43.1016H91.7012V42.041H92.041C92.2988 42.041 92.5 41.9902 92.6445 41.8887C92.7891 41.7871 92.8906 41.6074 92.9492 41.3496C93.0078 41.0918 93.0371 40.7344 93.0371 40.2773C93.0371 39.8516 93.0078 39.5293 92.9492 39.3105C92.8945 39.0879 92.8105 38.9375 92.6973 38.8594C92.5879 38.7773 92.4551 38.7363 92.2988 38.7363C92.1309 38.7363 91.9941 38.7852 91.8887 38.8828C91.7832 38.9766 91.7051 39.1367 91.6543 39.3633C91.6074 39.5898 91.584 39.9004 91.584 40.2949V40.5645H90.2773V40.2422C90.2773 39.3359 90.4238 38.666 90.7168 38.2324C91.0137 37.7949 91.5352 37.5762 92.2812 37.5762C93.0195 37.5762 93.5508 37.8027 93.875 38.2559C94.2031 38.7051 94.3672 39.3789 94.3672 40.2773C94.3672 40.8359 94.2852 41.3184 94.1211 41.7246C93.957 42.127 93.6895 42.3965 93.3184 42.5332C93.5801 42.6543 93.7891 42.8398 93.9453 43.0898C94.1016 43.3398 94.2148 43.6367 94.2852 43.9805C94.3555 44.3242 94.3906 44.7012 94.3906 45.1113C94.3906 46.1074 94.2285 46.8574 93.9043 47.3613C93.5801 47.8652 93.0273 48.1172 92.2461 48.1172ZM97.5078 48.1172C96.7617 48.1172 96.2441 47.8848 95.9551 47.4199C95.666 46.9512 95.5215 46.2305 95.5215 45.2578V44.6777H96.7988V45.252C96.7988 45.666 96.8145 45.998 96.8457 46.248C96.8809 46.498 96.9512 46.6797 97.0566 46.793C97.166 46.9023 97.3281 46.957 97.543 46.957C97.7617 46.957 97.9238 46.8926 98.0293 46.7637C98.1387 46.6348 98.2109 46.4336 98.2461 46.1602C98.2852 45.8867 98.3047 45.5352 98.3047 45.1055C98.3047 44.6133 98.2773 44.2207 98.2227 43.9277C98.168 43.6348 98.0684 43.4238 97.9238 43.2949C97.7832 43.166 97.5801 43.1016 97.3145 43.1016H96.9629V42.041H97.3027C97.5605 42.041 97.7617 41.9902 97.9062 41.8887C98.0508 41.7871 98.1523 41.6074 98.2109 41.3496C98.2695 41.0918 98.2988 40.7344 98.2988 40.2773C98.2988 39.8516 98.2695 39.5293 98.2109 39.3105C98.1562 39.0879 98.0723 38.9375 97.959 38.8594C97.8496 38.7773 97.7168 38.7363 97.5605 38.7363C97.3926 38.7363 97.2559 38.7852 97.1504 38.8828C97.0449 38.9766 96.9668 39.1367 96.916 39.3633C96.8691 39.5898 96.8457 39.9004 96.8457 40.2949V40.5645H95.5391V40.2422C95.5391 39.3359 95.6855 38.666 95.9785 38.2324C96.2754 37.7949 96.7969 37.5762 97.543 37.5762C98.2812 37.5762 98.8125 37.8027 99.1367 38.2559C99.4648 38.7051 99.6289 39.3789 99.6289 40.2773C99.6289 40.8359 99.5469 41.3184 99.3828 41.7246C99.2188 42.127 98.9512 42.3965 98.5801 42.5332C98.8418 42.6543 99.0508 42.8398 99.207 43.0898C99.3633 43.3398 99.4766 43.6367 99.5469 43.9805C99.6172 44.3242 99.6523 44.7012 99.6523 45.1113C99.6523 46.1074 99.4902 46.8574 99.166 47.3613C98.8418 47.8652 98.2891 48.1172 97.5078 48.1172ZM104 48L108.096 37.6875H109.174L105.131 48H104ZM102.928 44.5957C102.471 44.5957 102.104 44.5137 101.826 44.3496C101.553 44.1816 101.354 43.9141 101.229 43.5469C101.104 43.1797 101.041 42.6973 101.041 42.0996V40.0078C101.041 39.4141 101.102 38.9375 101.223 38.5781C101.344 38.2188 101.541 37.959 101.814 37.7988C102.092 37.6387 102.463 37.5586 102.928 37.5586C103.393 37.5586 103.762 37.6387 104.035 37.7988C104.312 37.959 104.512 38.2188 104.633 38.5781C104.754 38.9375 104.814 39.4141 104.814 40.0078V42.0996C104.814 42.6973 104.752 43.1797 104.627 43.5469C104.502 43.9141 104.301 44.1816 104.023 44.3496C103.75 44.5137 103.385 44.5957 102.928 44.5957ZM102.928 43.5879C103.197 43.5879 103.381 43.5059 103.479 43.3418C103.576 43.1738 103.625 42.8945 103.625 42.5039V39.6094C103.625 39.2227 103.578 38.9531 103.484 38.8008C103.391 38.6445 103.205 38.5664 102.928 38.5664C102.65 38.5664 102.463 38.6445 102.365 38.8008C102.271 38.957 102.225 39.2266 102.225 39.6094V42.5039C102.225 42.8945 102.273 43.1738 102.371 43.3418C102.469 43.5059 102.654 43.5879 102.928 43.5879ZM110.182 48.1172C109.729 48.1172 109.363 48.0352 109.086 47.8711C108.809 47.7031 108.607 47.4355 108.482 47.0684C108.357 46.7012 108.295 46.2188 108.295 45.6211V43.5293C108.295 42.9355 108.355 42.459 108.477 42.0996C108.598 41.7402 108.795 41.4805 109.068 41.3203C109.346 41.1602 109.717 41.0801 110.182 41.0801C110.65 41.0801 111.021 41.1602 111.295 41.3203C111.572 41.4805 111.77 41.7402 111.887 42.0996C112.008 42.459 112.068 42.9355 112.068 43.5293V45.6211C112.068 46.2188 112.006 46.7012 111.881 47.0684C111.76 47.4355 111.561 47.7031 111.283 47.8711C111.006 48.0352 110.639 48.1172 110.182 48.1172ZM110.182 47.1094C110.451 47.1094 110.635 47.0273 110.732 46.8633C110.834 46.6953 110.885 46.416 110.885 46.0254V43.1309C110.885 42.7441 110.838 42.4746 110.744 42.3223C110.65 42.166 110.463 42.0879 110.182 42.0879C109.908 42.0879 109.723 42.166 109.625 42.3223C109.531 42.4785 109.484 42.748 109.484 43.1309V46.0254C109.484 46.416 109.533 46.6953 109.631 46.8633C109.729 47.0273 109.912 47.1094 110.182 47.1094Z" fill="white"/>
</svg>
