<svg width="26" height="23" viewBox="0 0 26 23" fill="none" xmlns="http://www.w3.org/2000/svg">
<g clip-path="url(#clip0_371_22)" filter="url(#filter0_i_371_22)">
<path d="M14.3045 0.808594C14.0653 0.314453 13.5598 0 13.0045 0C12.4493 0 11.9483 0.314453 11.7045 0.808594L8.80211 6.75176L2.32017 7.7041C1.7785 7.78496 1.32711 8.1623 1.1601 8.67891C0.993086 9.19551 1.1285 9.76602 1.5167 10.1479L6.22017 14.7793L5.10975 21.3244C5.01947 21.8635 5.24517 22.4115 5.69204 22.7305C6.13892 23.0494 6.73024 23.0898 7.21774 22.8338L13.0091 19.7566L18.8004 22.8338C19.2879 23.0898 19.8792 23.0539 20.3261 22.7305C20.7729 22.407 20.9986 21.8635 20.9084 21.3244L19.7934 14.7793L24.4969 10.1479C24.8851 9.76602 25.025 9.19551 24.8535 8.67891C24.682 8.1623 24.2351 7.78496 23.6934 7.7041L17.207 6.75176L14.3045 0.808594Z" fill="#DFC900"/>
</g>
<defs>
<filter id="filter0_i_371_22" x="0" y="0" width="26" height="23" filterUnits="userSpaceOnUse" color-interpolation-filters="sRGB">
<feFlood flood-opacity="0" result="BackgroundImageFix"/>
<feBlend mode="normal" in="SourceGraphic" in2="BackgroundImageFix" result="shape"/>
<feColorMatrix in="SourceAlpha" type="matrix" values="0 0 0 0 0 0 0 0 0 0 0 0 0 0 0 0 0 0 127 0" result="hardAlpha"/>
<feOffset/>
<feGaussianBlur stdDeviation="5"/>
<feComposite in2="hardAlpha" operator="arithmetic" k2="-1" k3="1"/>
<feColorMatrix type="matrix" values="0 0 0 0 0 0 0 0 0 0 0 0 0 0 0 0 0 0 0.7 0"/>
<feBlend mode="normal" in2="shape" result="effect1_innerShadow_371_22"/>
</filter>
<clipPath id="clip0_371_22">
<rect width="26" height="23" fill="white"/>
</clipPath>
</defs>
</svg>
