<svg width="342" height="342" viewBox="0 0 342 342" fill="none" xmlns="http://www.w3.org/2000/svg">
<g filter="url(#filter0_ii_534_163)">
<path d="M235.125 171C235.125 185.829 234.323 200.123 232.921 213.75H109.079C107.61 200.123 106.875 185.829 106.875 171C106.875 156.171 107.677 141.877 109.079 128.25H232.921C234.39 141.877 235.125 156.171 235.125 171ZM254.362 128.25H336.589C340.13 141.943 342 156.238 342 171C342 185.762 340.13 200.057 336.589 213.75H254.362C255.765 199.99 256.5 185.695 256.5 171C256.5 156.305 255.765 142.01 254.362 128.25ZM329.576 106.875H251.624C244.944 64.1918 231.718 28.4555 214.685 5.61094C266.987 19.4379 309.537 57.3785 329.509 106.875H329.576ZM229.982 106.875H112.018C116.093 82.5609 122.372 61.0523 130.054 43.6184C137.067 27.8543 144.882 16.432 152.43 9.21797C159.912 2.1375 166.124 0 171 0C175.876 0 182.088 2.1375 189.57 9.21797C197.118 16.432 204.933 27.8543 211.946 43.6184C219.695 60.9855 225.907 82.4941 229.982 106.875ZM90.3762 106.875H12.4242C32.4633 57.3785 74.9461 19.4379 127.315 5.61094C110.282 28.4555 97.0559 64.1918 90.3762 106.875ZM5.41055 128.25H87.6375C86.2348 142.01 85.5 156.305 85.5 171C85.5 185.695 86.2348 199.99 87.6375 213.75H5.41055C1.87031 200.057 0 185.762 0 171C0 156.238 1.87031 141.943 5.41055 128.25ZM130.054 298.315C122.305 280.948 116.093 259.439 112.018 235.125H229.982C225.907 259.439 219.628 280.948 211.946 298.315C204.933 314.079 197.118 325.501 189.57 332.715C182.088 339.863 175.876 342 171 342C166.124 342 159.912 339.863 152.43 332.782C144.882 325.568 137.067 314.146 130.054 298.382V298.315ZM90.3762 235.125C97.0559 277.808 110.282 313.545 127.315 336.389C74.9461 322.562 32.4633 284.621 12.4242 235.125H90.3762ZM329.576 235.125C309.537 284.621 267.054 322.562 214.752 336.389C231.785 313.545 244.944 277.808 251.691 235.125H329.576Z" fill="#42007A"/>
</g>
<defs>
<filter id="filter0_ii_534_163" x="0" y="0" width="342" height="343" filterUnits="userSpaceOnUse" color-interpolation-filters="sRGB">
<feFlood flood-opacity="0" result="BackgroundImageFix"/>
<feBlend mode="normal" in="SourceGraphic" in2="BackgroundImageFix" result="shape"/>
<feColorMatrix in="SourceAlpha" type="matrix" values="0 0 0 0 0 0 0 0 0 0 0 0 0 0 0 0 0 0 127 0" result="hardAlpha"/>
<feOffset dy="1"/>
<feGaussianBlur stdDeviation="10"/>
<feComposite in2="hardAlpha" operator="arithmetic" k2="-1" k3="1"/>
<feColorMatrix type="matrix" values="0 0 0 0 0 0 0 0 0 0 0 0 0 0 0 0 0 0 1 0"/>
<feBlend mode="normal" in2="shape" result="effect1_innerShadow_534_163"/>
<feColorMatrix in="SourceAlpha" type="matrix" values="0 0 0 0 0 0 0 0 0 0 0 0 0 0 0 0 0 0 127 0" result="hardAlpha"/>
<feOffset dy="1"/>
<feGaussianBlur stdDeviation="10"/>
<feComposite in2="hardAlpha" operator="arithmetic" k2="-1" k3="1"/>
<feColorMatrix type="matrix" values="0 0 0 0 0 0 0 0 0 0 0 0 0 0 0 0 0 0 1 0"/>
<feBlend mode="normal" in2="effect1_innerShadow_534_163" result="effect2_innerShadow_534_163"/>
</filter>
</defs>
</svg>
