<svg width="19" height="19" viewBox="0 0 19 19" fill="none" xmlns="http://www.w3.org/2000/svg">
<path d="M9.5 1C4.80558 1 1 4.80558 1 9.5C1 14.1944 4.80558 18 9.5 18C14.1944 18 18 14.1944 18 9.5C18 4.80558 14.1944 1 9.5 1Z" stroke="white" stroke-width="2" stroke-linecap="round" stroke-linejoin="round"/>
<path d="M2.93036 14.8935C2.93036 14.8935 4.82503 12.4746 9.50001 12.4746C14.175 12.4746 16.0697 14.8935 16.0697 14.8935" stroke="white" stroke-width="2" stroke-linecap="round" stroke-linejoin="round"/>
<path d="M9.50001 9.50039C10.9084 9.50039 12.05 8.35876 12.05 6.95039C12.05 5.54207 10.9084 4.40039 9.50001 4.40039C8.09165 4.40039 6.95001 5.54207 6.95001 6.95039C6.95001 8.35876 8.09165 9.50039 9.50001 9.50039Z" stroke="white" stroke-width="2" stroke-linecap="round" stroke-linejoin="round"/>
</svg>
